# xmcd CD database file
#
# Track frame offsets:
#	150
#	20225
#	42336
#	58184
#	79257
#	97276
#	117805
#	136501
#	151320
#
# Disc length: 2178 seconds
#
# Revision: 0
# Processed by: cddbd v1.5.1PL0 Copyright (c) Steve Scherf et al.
# Submitted via: CDex 1.51
#
DISCID=76088009
DTITLE=Saint-James Guillaume - Briser la glace
DYEAR=2004
DGENRE=Jazz
TTITLE0=Electrotherapy
TTITLE1=Spanish vertigo
TTITLE2=Mooly
TTITLE3=Toc toc la maloque
TTITLE4=Dave Brubach
TTITLE5=Monfourygrouve
TTITLE6=Pachyderme
TTITLE7=Expektation
TTITLE8=L'enfance
EXTD=YEAR: 2004
EXTT0=
EXTT1=
EXTT2=
EXTT3=
EXTT4=
EXTT5=
EXTT6=
EXTT7=
EXTT8=
PLAYORDER=
